# xmcd
#
# Track frame offsets: 
#        150
#        16777
#        36940
#        56282
#        58550
#        75767
#        94412
#        114297
#        131632
#        149482
#        169782
#        200370
#
# Disc length: 2767 seconds
#
# Revision: 0
# Processed by: cddbd v1.5.2PL0 Copyright (c) Steve Scherf et al.
# Submitted via: ExactAudioCopy v0.95b4
#
DISCID=950acd0c
DTITLE=S - Fr.in.Cl
DYEAR=2003
DGENRE=Pop
TTITLE0=I Swear
TTITLE1=»ç¶û´Ï (Love is...)
TTITLE2=¹ÌÃÆ¾úÁÒ (Just One Moment)
TTITLE3=I Believe
TTITLE4=´ÞÀÌ ²Ù´Â ²Þ (Tear of the Moon)
TTITLE5=¸ô¶úÁÒ (Stay)
TTITLE6=¿Ö... (I was...)
TTITLE7=Never Knew
TTITLE8=»ç¶û¹Û¿¡ ¸ð¸£ÁÒ (Love is what I need)
TTITLE9=Sentimental
TTITLE10=Prayer
TTITLE11=DATA
EXTD=
EXTT0=
EXTT1=
EXTT2=
EXTT3=
EXTT4=
EXTT5=
EXTT6=
EXTT7=
EXTT8=
EXTT9=
EXTT10=
EXTT11=
PLAYORDER=
